<?xml version="1.0" standalone="no"?>
<!DOCTYPE svg PUBLIC "-//W3C//DTD SVG 20010904//EN"
 "http://www.w3.org/TR/2001/REC-SVG-20010904/DTD/svg10.dtd">
<svg version="1.0" xmlns="http://www.w3.org/2000/svg"
 width="310.000000pt" height="163.000000pt" viewBox="0 0 310.000000 163.000000"
 preserveAspectRatio="xMidYMid meet">

<g transform="translate(0.000000,163.000000) scale(0.100000,-0.100000)"
fill="#000000" stroke="none">
<path d="M1075 1586 c-157 -50 -275 -184 -305 -345 -13 -70 -13 -782 0 -852
26 -139 120 -261 250 -323 l65 -31 465 0 465 0 65 31 c130 62 224 184 250 323
13 70 13 782 0 852 -26 139 -120 261 -250 323 l-65 31 -450 2 c-344 2 -459 -1
-490 -11z m950 -150 c56 -26 125 -95 152 -153 16 -35 18 -76 18 -468 0 -392
-2 -433 -18 -468 -27 -58 -96 -127 -152 -153 -50 -24 -50 -24 -475 -24 -425 0
-425 0 -475 24 -56 26 -125 95 -152 153 -16 35 -18 76 -18 468 0 392 2 433 18
468 27 58 96 127 152 153 50 24 50 24 475 24 425 0 425 0 475 -24z"/>
<path d="M1911 1314 c-38 -32 -49 -80 -27 -122 30 -59 102 -71 155 -26 25 21
31 33 31 66 0 50 -13 74 -50 93 -42 22 -74 19 -109 -11z"/>
<path d="M1442 1204 c-151 -40 -269 -175 -290 -330 -17 -128 20 -245 107 -337
158 -167 424 -167 582 0 147 156 149 397 4 552 -105 113 -255 155 -403 115z
m198 -139 c148 -52 217 -224 147 -367 -97 -198 -377 -198 -474 0 -105 214 102
446 327 367z"/>
</g>
</svg>
